<?xml version="1.0" standalone="no"?>
<!DOCTYPE svg PUBLIC "-//W3C//DTD SVG 20010904//EN"
 "http://www.w3.org/TR/2001/REC-SVG-20010904/DTD/svg10.dtd">
<svg version="1.0" xmlns="http://www.w3.org/2000/svg"
 width="260.000000pt" height="260.000000pt" viewBox="0 0 260.000000 260.000000"
 preserveAspectRatio="xMidYMid meet">
<metadata>
Created by potrace 1.11, written by Peter Selinger 2001-2013
</metadata>
<g transform="translate(0.000000,260.000000) scale(0.100000,-0.100000)"
fill="#000000" stroke="none">
<path d="M531 2379 c-237 -39 -450 -243 -507 -485 -21 -92 -14 -244 15 -334
63 -190 213 -340 407 -406 62 -21 99 -27 174 -28 149 -2 238 21 350 89 327
199 403 637 161 940 -138 172 -375 261 -600 224z m189 -221 c223 -41 370 -261
324 -484 -35 -170 -162 -293 -337 -325 -243 -45 -477 155 -477 406 0 115 47
223 132 302 100 91 223 126 358 101z"/>
<path d="M1760 1664 c-44 -9 -114 -34 -170 -61 -79 -38 -108 -59 -180 -132
-136 -136 -200 -286 -204 -476 -6 -249 105 -465 311 -603 254 -172 618 -143
842 65 106 98 194 246 216 363 11 63 14 214 4 274 -44 269 -255 501 -514 565
-76 19 -220 21 -305 5z m250 -249 c73 -19 130 -54 191 -114 88 -88 128 -185
131 -316 3 -117 -25 -203 -93 -291 -47 -61 -135 -125 -204 -149 -49 -16 -174
-23 -225 -12 -206 44 -349 222 -350 435 0 217 125 393 320 448 55 16 169 15
230 -1z"/>
<path d="M670 993 c-80 -20 -170 -87 -197 -146 -6 -12 -17 -35 -24 -51 -9 -18
-14 -61 -13 -110 0 -68 4 -89 27 -131 33 -62 63 -95 113 -128 107 -69 238 -67
344 5 93 63 141 159 136 273 -9 199 -194 337 -386 288z m166 -148 c161 -94 94
-334 -94 -335 -103 0 -184 88 -176 194 8 132 154 209 270 141z"/>
</g>
</svg>
